<svg width="512" height="512" viewBox="0 0 512 512" fill="none" xmlns="http://www.w3.org/2000/svg">
<g clip-path="url(#clip0_8_12)">
<path d="M141.442 382V54.7273H264.169C289.311 54.7273 310.405 59.0952 327.45 67.831C344.602 76.5667 357.546 88.8182 366.282 104.585C375.124 120.246 379.546 138.516 379.546 159.397C379.546 180.384 375.071 198.602 366.122 214.049C357.28 229.39 344.23 241.268 326.971 249.685C309.713 257.994 288.512 262.149 263.37 262.149H175.959V212.93H255.38C270.082 212.93 282.12 210.906 291.495 206.858C300.87 202.703 307.795 196.684 312.269 188.8C316.85 180.81 319.141 171.009 319.141 159.397C319.141 147.785 316.85 137.877 312.269 129.674C307.688 121.364 300.71 115.079 291.335 110.817C281.96 106.45 269.869 104.266 255.061 104.266H200.728V382H141.442ZM310.512 233.705L391.531 382H325.373L245.792 233.705H310.512Z" fill="#2563EB"/>
<path d="M150.382 432C174.066 432 195.83 433.815 215.673 437.446C236.157 440.774 255.68 444.859 274.243 449.7C293.446 454.238 312.649 458.323 331.853 461.954C351.696 465.282 372.499 466.946 394.263 466.946C413.466 466.946 430.429 464.979 445.151 461.046C460.514 457.113 472.356 450.305 480.677 440.623L497 442.892C494.44 452.877 486.758 461.5 473.956 468.762C461.154 475.721 444.831 481.167 424.988 485.1C405.785 489.033 384.661 491 361.618 491C337.934 491 315.85 489.336 295.367 486.008C275.523 482.377 256 478.292 236.797 473.754C218.234 468.913 199.351 464.828 180.147 461.5C160.944 457.869 140.141 456.054 117.737 456.054C98.5339 456.054 81.5711 458.021 66.8486 461.954C52.1262 465.887 40.2842 472.695 31.3227 482.377L15 480.108C17.5604 470.123 25.2417 461.651 38.0438 454.692C50.846 447.431 67.1687 441.833 87.012 437.9C106.855 433.967 127.979 432 150.382 432Z" fill="#2563EB"/>
</g>
<defs>
<clipPath id="clip0_8_12">
<rect width="512" height="512" fill="white"/>
</clipPath>
</defs>
</svg>
